<svg xmlns="http://www.w3.org/2000/svg" viewBox="0 0 200 200">
  <!-- Llama Head -->
  <path d="M140,60 C140,40 130,35 110,35 C90,35 85,50 80,60 C75,70 65,75 60,80 C55,85 50,90 50,100 C50,110 60,120 70,125 C75,127.5 80,130 80,135 C80,140 75,142.5 70,145 C65,147.5 60,150 60,160 C60,170 70,175 80,175 C90,175 95,170 100,165 C105,160 115,155 125,155 C135,155 140,160 145,165 C150,170 155,175 165,175 C175,175 180,170 180,160 C180,150 170,145 160,145 C150,145 145,150 140,155 C135,160 130,165 120,165 C110,165 105,160 100,155 C95,150 90,145 90,135 C90,125 100,120 110,120 C120,120 130,115 135,110 C140,105 145,100 145,90 C145,80 140,75 135,70 C130,65 125,60 130,50 C135,40 140,40 140,60 Z" fill="white" stroke="black" stroke-width="3"/>
  
  <!-- Ear -->
  <path d="M135,45 C135,40 130,35 125,35 C120,35 115,40 115,45 C115,50 120,55 125,55 C130,55 135,50 135,45 Z" fill="white" stroke="black" stroke-width="2"/>
  
  <!-- Eye -->
  <circle cx="105" cy="70" r="5" fill="black"/>
  
  <!-- Nose -->
  <path d="M85,85 C85,90 90,95 95,95 C100,95 105,90 105,85 C105,80 100,75 95,75 C90,75 85,80 85,85 Z" fill="black"/>
  
  <!-- Code Brackets -->
  <path d="M30,60 L20,100 L30,140" fill="none" stroke="black" stroke-width="3" stroke-linecap="round"/>
  <path d="M170,60 L180,100 L170,140" fill="none" stroke="black" stroke-width="3" stroke-linecap="round"/>
  
  <!-- cpp Text -->
  <path d="M160,115 L160,125 M155,120 L165,120" fill="none" stroke="black" stroke-width="2" stroke-linecap="round"/>
  <path d="M170,115 L170,125 M165,120 L175,120" fill="none" stroke="black" stroke-width="2" stroke-linecap="round"/>
</svg>